<svg xmlns="http://www.w3.org/2000/svg" xmlns:xlink="http://www.w3.org/1999/xlink" width="2000" zoomAndPan="magnify" viewBox="0 0 1500 1499.999933" height="2000" preserveAspectRatio="xMidYMid meet" version="1.0"><defs><clipPath id="cb54184cdd"><path d="M 347.683594 695 L 363 695 L 363 806 L 347.683594 806 Z M 347.683594 695 " clip-rule="nonzero"/></clipPath><clipPath id="050a034580"><path d="M 874 585.550781 L 890 585.550781 L 890 914.800781 L 874 914.800781 Z M 874 585.550781 " clip-rule="nonzero"/></clipPath><clipPath id="b474cfd1c3"><path d="M 1137 702 L 1152.433594 702 L 1152.433594 800 L 1137 800 Z M 1137 702 " clip-rule="nonzero"/></clipPath></defs><path fill="#000000" d="M 698.796875 645.5625 L 698.796875 857.03125 C 698.796875 861.265625 702.03125 864.503906 706.261719 864.503906 C 710.492188 864.503906 713.726562 861.265625 713.726562 857.03125 L 713.726562 645.5625 C 713.726562 641.328125 710.492188 638.09375 706.261719 638.09375 C 702.03125 638.09375 698.796875 641.328125 698.796875 645.5625 " fill-opacity="1" fill-rule="nonzero"/><path fill="#000000" d="M 610.953125 667.980469 L 610.953125 831.625 C 610.953125 835.859375 614.191406 839.097656 618.421875 839.097656 C 622.652344 839.097656 625.886719 835.859375 625.886719 831.625 L 625.886719 667.980469 C 625.886719 663.746094 622.652344 660.507812 618.421875 660.507812 C 614.191406 660.507812 610.953125 663.746094 610.953125 667.980469 " fill-opacity="1" fill-rule="nonzero"/><path fill="#000000" d="M 435.523438 667.980469 L 435.523438 831.625 C 435.523438 835.859375 438.757812 839.097656 442.988281 839.097656 C 447.21875 839.097656 450.453125 835.859375 450.453125 831.625 L 450.453125 667.980469 C 450.453125 663.746094 447.21875 660.507812 442.988281 660.507812 C 438.757812 660.507812 435.523438 663.746094 435.523438 667.980469 " fill-opacity="1" fill-rule="nonzero"/><g clip-path="url(#cb54184cdd)"><path fill="#000000" d="M 347.683594 702.851562 L 347.683594 798.25 C 347.683594 802.484375 350.917969 805.722656 355.148438 805.722656 C 359.378906 805.722656 362.613281 802.484375 362.613281 798.25 L 362.613281 702.851562 C 362.613281 698.617188 359.378906 695.378906 355.148438 695.378906 C 350.917969 695.378906 347.683594 698.617188 347.683594 702.851562 " fill-opacity="1" fill-rule="nonzero"/></g><path fill="#000000" d="M 523.113281 640.582031 L 523.113281 859.023438 C 523.113281 863.257812 526.347656 866.496094 530.578125 866.496094 C 534.808594 866.496094 538.042969 863.257812 538.042969 859.023438 L 538.042969 640.582031 C 538.042969 636.347656 534.808594 633.109375 530.578125 633.109375 C 526.597656 633.109375 523.113281 636.347656 523.113281 640.582031 " fill-opacity="1" fill-rule="nonzero"/><path fill="#000000" d="M 786.386719 645.5625 L 786.386719 857.03125 C 786.386719 861.265625 789.621094 864.503906 793.851562 864.503906 C 798.082031 864.503906 801.316406 861.265625 801.316406 857.03125 L 801.316406 645.5625 C 801.316406 641.328125 798.082031 638.09375 793.851562 638.09375 C 789.871094 638.09375 786.386719 641.328125 786.386719 645.5625 " fill-opacity="1" fill-rule="nonzero"/><g clip-path="url(#050a034580)"><path fill="#000000" d="M 874.226562 593.257812 L 874.226562 907.097656 C 874.226562 911.332031 877.464844 914.570312 881.695312 914.570312 C 885.921875 914.570312 889.160156 911.332031 889.160156 907.097656 L 889.160156 593.257812 C 889.160156 589.023438 885.921875 585.785156 881.695312 585.785156 C 877.464844 585.785156 874.226562 589.023438 874.226562 593.257812 " fill-opacity="1" fill-rule="nonzero"/></g><path fill="#000000" d="M 961.820312 628.128906 L 961.820312 873.71875 C 961.820312 877.953125 965.054688 881.191406 969.285156 881.191406 C 973.515625 881.191406 976.75 877.953125 976.75 873.71875 L 976.75 628.128906 C 976.75 623.894531 973.515625 620.65625 969.285156 620.65625 C 965.304688 620.65625 961.820312 623.894531 961.820312 628.128906 " fill-opacity="1" fill-rule="nonzero"/><path fill="#000000" d="M 1049.660156 667.980469 L 1049.660156 831.625 C 1049.660156 835.859375 1052.894531 839.097656 1057.125 839.097656 C 1061.355469 839.097656 1064.589844 835.859375 1064.589844 831.625 L 1064.589844 667.980469 C 1064.589844 663.746094 1061.355469 660.507812 1057.125 660.507812 C 1053.144531 660.507812 1049.660156 663.746094 1049.660156 667.980469 " fill-opacity="1" fill-rule="nonzero"/><g clip-path="url(#b474cfd1c3)"><path fill="#000000" d="M 1137.5 710.324219 L 1137.5 792.273438 C 1137.5 796.507812 1140.734375 799.742188 1144.964844 799.742188 C 1149.195312 799.742188 1152.433594 796.507812 1152.433594 792.273438 L 1152.433594 710.324219 C 1152.433594 706.089844 1149.195312 702.851562 1144.964844 702.851562 C 1140.734375 702.851562 1137.5 706.089844 1137.5 710.324219 " fill-opacity="1" fill-rule="nonzero"/></g></svg>