<svg xmlns="http://www.w3.org/2000/svg" xmlns:xlink="http://www.w3.org/1999/xlink" width="90" zoomAndPan="magnify" viewBox="0 0 67.5 54" height="72" preserveAspectRatio="xMidYMid meet" version="1.0"><defs><clipPath id="a557190a87"><path d="M 12.042969 14.765625 L 55.8125 14.765625 L 55.8125 38.503906 L 12.042969 38.503906 Z M 12.042969 14.765625 " clip-rule="nonzero"/></clipPath></defs><g clip-path="url(#a557190a87)"><path fill="#231f20" d="M 33.398438 25.835938 L 33.398438 15.292969 C 33.398438 15.003906 33.636719 14.765625 33.929688 14.765625 C 34.222656 14.765625 34.464844 15.003906 34.464844 15.292969 L 34.464844 25.835938 C 34.464844 26.125 34.222656 26.363281 33.929688 26.363281 C 33.628906 26.363281 33.398438 26.125 33.398438 25.835938 Z M 27.164062 19.828125 L 29.683594 26.664062 C 29.78125 26.941406 30.089844 27.082031 30.367188 26.976562 C 30.644531 26.882812 30.789062 26.578125 30.683594 26.300781 L 28.164062 19.460938 C 28.066406 19.1875 27.757812 19.046875 27.480469 19.152344 C 27.199219 19.253906 27.058594 19.550781 27.164062 19.828125 Z M 26.488281 28.699219 C 26.675781 28.921875 27.011719 28.949219 27.238281 28.765625 C 27.464844 28.578125 27.496094 28.246094 27.304688 28.023438 L 20.433594 19.945312 C 20.246094 19.722656 19.90625 19.691406 19.679688 19.878906 C 19.457031 20.0625 19.425781 20.398438 19.613281 20.621094 Z M 17.792969 28.046875 L 24.1875 31.6875 C 24.441406 31.835938 24.765625 31.746094 24.914062 31.496094 C 25.066406 31.242188 24.976562 30.925781 24.71875 30.777344 L 18.335938 27.132812 C 18.078125 26.984375 17.757812 27.074219 17.605469 27.324219 C 17.457031 27.578125 17.539062 27.898438 17.792969 28.046875 Z M 23.058594 35.269531 C 23.351562 35.324219 23.621094 35.128906 23.675781 34.847656 C 23.726562 34.558594 23.53125 34.292969 23.246094 34.238281 L 12.71875 32.398438 C 12.425781 32.347656 12.152344 32.542969 12.101562 32.824219 C 12.046875 33.113281 12.246094 33.378906 12.53125 33.429688 Z M 55.761719 32.859375 C 55.707031 32.570312 55.4375 32.386719 55.144531 32.429688 L 44.617188 34.246094 C 44.324219 34.300781 44.136719 34.566406 44.179688 34.855469 C 44.234375 35.144531 44.511719 35.332031 44.796875 35.285156 L 55.324219 33.46875 C 55.617188 33.417969 55.804688 33.140625 55.761719 32.859375 Z M 43.144531 30.789062 C 42.886719 30.9375 42.796875 31.257812 42.949219 31.511719 C 43.097656 31.761719 43.421875 31.851562 43.675781 31.703125 L 50.070312 28.074219 C 50.324219 27.925781 50.414062 27.609375 50.265625 27.355469 C 50.113281 27.105469 49.789062 27.015625 49.535156 27.164062 Z M 40.5625 28.03125 C 40.375 28.253906 40.40625 28.585938 40.632812 28.773438 C 40.855469 28.957031 41.195312 28.929688 41.382812 28.707031 L 48.265625 20.640625 C 48.453125 20.417969 48.421875 20.085938 48.195312 19.902344 C 47.96875 19.714844 47.632812 19.746094 47.445312 19.96875 Z M 37.503906 26.984375 C 37.78125 27.082031 38.082031 26.949219 38.1875 26.671875 L 40.722656 19.839844 C 40.820312 19.566406 40.683594 19.269531 40.40625 19.167969 C 40.128906 19.070312 39.828125 19.203125 39.722656 19.476562 L 37.1875 26.308594 C 37.082031 26.585938 37.226562 26.882812 37.503906 26.984375 Z M 50.867188 37.980469 C 50.867188 38.269531 50.625 38.503906 50.332031 38.503906 L 17.523438 38.503906 C 17.230469 38.503906 16.988281 38.269531 16.988281 37.980469 C 16.988281 37.6875 17.230469 37.453125 17.523438 37.453125 L 25.164062 37.453125 C 25.140625 37.183594 25.125 36.910156 25.125 36.636719 C 25.125 31.851562 29.074219 27.957031 33.921875 27.957031 C 38.773438 27.957031 42.722656 31.851562 42.722656 36.636719 C 42.722656 36.910156 42.707031 37.183594 42.683594 37.453125 L 50.324219 37.453125 C 50.625 37.453125 50.867188 37.683594 50.867188 37.980469 Z M 41.660156 36.628906 C 41.660156 32.414062 38.203125 28.996094 33.921875 28.996094 C 29.652344 28.996094 26.1875 32.40625 26.1875 36.628906 C 26.1875 36.902344 26.199219 37.175781 26.230469 37.445312 L 41.609375 37.445312 C 41.648438 37.175781 41.660156 36.910156 41.660156 36.628906 Z M 41.660156 36.628906 " fill-opacity="1" fill-rule="nonzero"/></g></svg>