<svg xmlns="http://www.w3.org/2000/svg" xmlns:xlink="http://www.w3.org/1999/xlink" width="940" zoomAndPan="magnify" viewBox="0 0 705 591" height="788" preserveAspectRatio="xMidYMid meet" xmlns:v="https://vecta.io/nano"><defs><clipPath id="A"><path d="M.594 0h703.809v590H.594zm0 0" clip-rule="nonzero"/></clipPath><clipPath id="B"><path d="M150.797 96.563h403.566v349.66H150.797zm0 0" clip-rule="nonzero"/></clipPath><path id="C" d="M345.925 341.044l1.109 2.469c-.555.543-1.277.953-2.172 1.234-.887.281-1.852.422-2.891.422-4.449 0-6.672-2.242-6.672-6.734v-14.125h-4.047v-2.828h4.047v-4.937l3.438-.562v5.5h7.484v2.828h-7.484v13.781c0 2.668 1.16 4 3.484 4 1.258 0 2.348-.348 3.266-1.047zm0 0"/><path id="D" d="M351.244 473.452h2.109l-6.25 16.172c-.355.895-.75 1.613-1.187 2.156-.437.551-.961.953-1.562 1.203-.594.258-1.312.391-2.156.391-.469 0-.914-.043-1.328-.125-.406-.086-.758-.199-1.047-.344l.375-1.625.234-.078a2.9 2.9 0 0 0 .75.25c.313.07.625.109.938.109.57 0 1.039-.078 1.406-.234.375-.148.691-.398.953-.75.27-.344.52-.824.75-1.437l.5-1.375-5.625-14.312h2.234l4.406 11.406h.234zm0 0"/><path id="E" d="M382.017 487.702c-1.312 0-2.461-.273-3.437-.828-.969-.562-1.719-1.383-2.25-2.469s-.797-2.398-.797-3.953c0-1.539.266-2.859.797-3.953s1.281-1.914 2.25-2.469c.977-.562 2.125-.844 3.438-.844 1.32 0 2.469.281 3.438.844.977.555 1.734 1.375 2.266 2.469s.797 2.414.797 3.953c0 1.555-.266 2.871-.797 3.953s-1.289 1.906-2.266 2.469c-.969.555-2.117.828-3.437.828zm0-1.844c1.395 0 2.461-.437 3.203-1.312.738-.883 1.109-2.25 1.109-4.094s-.371-3.203-1.109-4.078c-.742-.883-1.809-1.328-3.203-1.328-1.387 0-2.453.445-3.203 1.328-.742.875-1.109 2.234-1.109 4.078s.367 3.211 1.109 4.094c.75.875 1.816 1.313 3.203 1.313zm0 0"/><path id="F" d="M480.295 241.562c-.687-1.199-.914-2.312-.672-3.344.25-1.031.953-1.875 2.109-2.531.719-.406 1.41-.598 2.078-.578.664.012 1.332.242 2 .688s1.375 1.117 2.125 2.016c.645.801 1.188 1.379 1.625 1.734.445.363.828.555 1.141.578.32.031.656-.055 1-.25.551-.324.863-.758.938-1.297.082-.543-.117-1.23-.594-2.062-.449-.781-.984-1.363-1.609-1.75-.625-.395-1.371-.656-2.234-.781l-.125-.219.734-1.578c.945.137 1.836.492 2.672 1.063.844.563 1.551 1.352 2.125 2.359.82 1.438 1.113 2.672.875 3.703-.242 1.039-.918 1.879-2.031 2.516l-6.437 3.672c-.68.383-.855.863-.531 1.438.102.188.242.348.422.484l.031.188-1.125.906c-.168-.074-.336-.211-.5-.406a4.67 4.67 0 0 1-.437-.625c-.387-.668-.531-1.258-.437-1.766.094-.5.406-.965.938-1.391l-.125-.234c-.824.02-1.562-.18-2.219-.594-.656-.406-1.234-1.055-1.734-1.937zm1.641-.422c.383.676.875 1.172 1.469 1.484.594.32 1.25.453 1.969.391.719-.055 1.445-.289 2.188-.703l1.547-.891-.062-.234c-.344-.168-.699-.406-1.062-.719-.355-.312-.777-.793-1.266-1.437-.5-.648-.969-1.121-1.406-1.422-.43-.305-.844-.453-1.25-.453s-.836.129-1.281.391c-.711.406-1.133.922-1.266 1.547s.004 1.305.422 2.047zm0 0"/><path id="G" d="M491.211 272.156c-1.094-1.918-1.566-3.5-1.422-4.75.137-1.242.73-2.164 1.781-2.766.688-.387 1.348-.492 1.984-.312.633.188 1.266.625 1.891 1.313l.234-.125c0-.5.086-.93.266-1.281s.461-.648.859-.875c.477-.273.945-.34 1.406-.203s.938.453 1.438.953l.234-.141c-.062-1.719.691-3.023 2.266-3.922.781-.445 1.578-.664 2.391-.656.82 0 1.598.242 2.328.719.738.469 1.359 1.148 1.859 2.031.582 1.02.844 2 .781 2.938a3.79 3.79 0 0 0 1.266.063c.395-.055.805-.184 1.234-.391l.281.156.484 1.688c-.656.27-1.281.375-1.875.313-.594-.055-1.184-.273-1.766-.656l-.234.141a3.32 3.32 0 0 1-.609 1.469c-.312.426-.746.797-1.297 1.109-.762.438-1.555.645-2.375.625-.812-.012-1.586-.25-2.312-.719s-1.344-1.141-1.844-2.016l-.281-.578-.328-.656c-.23-.387-.512-.637-.844-.75a1.09 1.09 0 0 0-.937.109c-.387.207-.602.484-.641.828-.031.352.098.82.391 1.406l1.547 2.922c.656 1.27.891 2.352.703 3.25-.187.906-.773 1.633-1.75 2.188-.73.414-1.5.594-2.312.531-.805-.055-1.621-.402-2.453-1.047-.82-.648-1.602-1.617-2.344-2.906zm10.797-6.187c.488.852 1.094 1.391 1.813 1.609s1.484.098 2.297-.359c.832-.469 1.344-1.07 1.531-1.797s.031-1.527-.469-2.391c-.492-.875-1.094-1.41-1.812-1.609-.711-.195-1.48-.055-2.312.422-.824.469-1.328 1.055-1.516 1.75-.18.707-.023 1.5.469 2.375zm-9.25 5.313c.508.895 1.023 1.566 1.547 2.016.52.457 1.016.719 1.484.781a2.07 2.07 0 0 0 1.313-.25c.352-.199.602-.434.75-.703.145-.262.188-.574.125-.937-.062-.355-.227-.805-.484-1.344l-1.437-2.797-.219-.375c-.875-1.512-1.898-1.937-3.062-1.281-1.406.813-1.41 2.441-.016 4.891zm0 0"/></defs><g clip-path="url(#A)"><g fill="#fff"><path d="M.594 0h703.813v597.488H.594zm0 0"/><path d="M.594 0h703.813v590H.594zm0 0"/></g><path fill="#d1fdff" d="M.594 0h703.813v590H.594zm0 0"/></g><g clip-path="url(#B)"><path d="M554.363 446.168H150.797L352.578 96.617zm-398-3.195H548.84L352.578 103.008zm0 0"/></g><path d="M317.263 345.169c-1.937 0-3.68-.262-5.219-.781-1.543-.531-2.828-1.223-3.859-2.078-1.023-.852-1.781-1.797-2.281-2.828l1.984-2.406h.516c1.914 3.219 4.867 4.828 8.859 4.828 2.32 0 4.047-.484 5.172-1.453 1.133-.969 1.703-2.316 1.703-4.047 0-1.008-.187-1.863-.562-2.562-.375-.707-.992-1.312-1.844-1.812s-2.023-.93-3.5-1.297l-3.609-.875c-2.68-.656-4.652-1.687-5.922-3.094-1.273-1.414-1.906-3.203-1.906-5.359 0-1.539.391-2.91 1.172-4.109.789-1.195 1.941-2.133 3.453-2.812 1.52-.676 3.332-1.016 5.438-1.016 2.32 0 4.281.328 5.875.984s2.867 1.637 3.828 2.938l-1.766 2.391h-.531c-.887-1.082-1.934-1.875-3.141-2.375-1.211-.508-2.633-.766-4.266-.766-2.137 0-3.75.418-4.844 1.25-1.086.824-1.625 1.965-1.625 3.422 0 1.398.398 2.508 1.203 3.328s2.148 1.461 4.047 1.906l3.688.875c3 .711 5.164 1.793 6.5 3.25 1.344 1.449 2.016 3.305 2.016 5.563 0 1.75-.391 3.297-1.172 4.641-.773 1.336-1.953 2.387-3.547 3.156-1.586.758-3.539 1.141-5.859 1.141zm0 0"/><use xlink:href="#C"/><path d="M357.506 345.169c-2.293 0-4.086-.594-5.375-1.781-1.281-1.195-1.922-2.906-1.922-5.125 0-1.375.281-2.535.844-3.484.57-.957 1.457-1.734 2.656-2.328s2.758-1.051 4.688-1.375c1.676-.281 2.953-.598 3.828-.953.883-.352 1.477-.742 1.781-1.172.301-.437.453-.988.453-1.656 0-1.051-.367-1.859-1.094-2.422-.719-.562-1.883-.844-3.484-.844-1.5 0-2.789.293-3.859.875s-2.062 1.453-2.969 2.609h-.422l-1.687-2.391c.988-1.25 2.238-2.238 3.75-2.969 1.52-.738 3.25-1.109 5.188-1.109 2.738 0 4.758.602 6.063 1.797s1.953 2.859 1.953 4.984v12.328c0 1.293.547 1.938 1.641 1.938a3.09 3.09 0 0 0 1.063-.187l.297.094.391 2.375c-.25.168-.586.297-1 .391s-.844.141-1.281.141c-1.273 0-2.234-.281-2.891-.844s-1.074-1.391-1.25-2.484l-.453-.047c-.656 1.219-1.547 2.133-2.672 2.734s-2.539.906-4.234.906zm.75-2.734c1.301 0 2.426-.297 3.375-.891.945-.602 1.672-1.441 2.172-2.516.508-1.082.766-2.336.766-3.766v-2.953l-.406-.078c-.523.367-1.156.672-1.906.922-.742.242-1.777.461-3.109.656-1.344.188-2.418.477-3.219.859-.793.375-1.359.855-1.703 1.438-.336.586-.5 1.305-.5 2.156 0 1.367.398 2.402 1.203 3.109s1.91 1.063 3.328 1.063zm0 0"/><use xlink:href="#C" x="41.758"/><path d="M411.826 333.903l-15.984.031c.113 2.813.801 4.875 2.063 6.188s2.977 1.969 5.156 1.969c1.656 0 2.988-.289 4-.875 1.008-.594 1.801-1.52 2.375-2.781h.453l2.234 1.328c-.68 1.688-1.762 3.012-3.25 3.969-1.48.961-3.418 1.438-5.812 1.438-2.25 0-4.184-.441-5.797-1.328s-2.859-2.223-3.734-4.016c-.875-1.801-1.312-4.035-1.312-6.703 0-2.645.457-4.875 1.375-6.687.926-1.812 2.188-3.16 3.781-4.047 1.594-.895 3.414-1.344 5.469-1.344 2.977 0 5.301.84 6.969 2.516 1.676 1.68 2.523 4.168 2.547 7.469l-.094 2.609zm-2.875-2.875c-.055-2.469-.602-4.266-1.641-5.391s-2.531-1.687-4.469-1.687c-2.031 0-3.633.57-4.797 1.703-1.156 1.125-1.859 2.918-2.109 5.375zM278.239 474.405v1.703h-3.078l-.687 4.125h3.031v1.688h-3.328l-.922 5.516h-1.875l.922-5.516h-4.25l-.922 5.516h-1.875l.922-5.516h-2.766v-1.687h3.063l.688-4.125h-3.047v-1.703h3.344l.922-5.5h1.875l-.922 5.5h4.234l.922-5.5h1.891l-.922 5.5zm-9.891 5.828h4.25l.672-4.125h-4.219zm12.365 7.203v-1.797h5.063v-14.172l-.297-.078c-.812.406-1.531.719-2.156.938-.617.219-1.402.43-2.359.625v-2c.945-.207 1.891-.484 2.828-.828s1.785-.75 2.547-1.219h1.563v16.734h4.531v1.797zm15.908.125c-.48 0-.859-.133-1.141-.406s-.422-.629-.422-1.078c0-.437.141-.797.422-1.078s.66-.422 1.141-.422c.488 0 .875.137 1.156.406s.422.633.422 1.078-.148.813-.437 1.094c-.281.273-.664.406-1.141.406zm0-11c-.48 0-.859-.133-1.141-.406s-.422-.629-.422-1.078c0-.437.141-.797.422-1.078s.66-.422 1.141-.422c.488 0 .875.137 1.156.406s.422.633.422 1.078-.148.813-.437 1.094c-.281.273-.664.406-1.141.406zm19.21-7.656c1.281 0 2.375.23 3.281.688.914.461 1.613 1.117 2.094 1.969.477.844.719 1.84.719 2.984s-.242 2.148-.719 3c-.48.844-1.18 1.496-2.094 1.953-.906.461-2 .688-3.281.688h-4.437v7.25h-2.187v-18.531zm-.062 9.422c2.582 0 3.875-1.258 3.875-3.781s-1.293-3.781-3.875-3.781h-4.375v7.563zm9.973 9.109v-19.594h2.063v7.609l.266.047c1-1.539 2.441-2.312 4.328-2.312 1.676 0 2.891.434 3.641 1.297.758.855 1.141 2.172 1.141 3.953v9h-2.062v-8.953c0-.844-.109-1.52-.328-2.031-.211-.508-.543-.879-1-1.109-.449-.227-1.043-.344-1.781-.344-1.262 0-2.277.414-3.047 1.234-.773.813-1.156 2.156-1.156 4.031v7.172zm0 0"/><use xlink:href="#D"/><path d="M360.515 487.702c-.875 0-1.687-.117-2.437-.344-.75-.238-1.387-.555-1.906-.953-.512-.406-.871-.863-1.078-1.375l1.219-1.266h.266c.457.688 1.004 1.211 1.641 1.563.645.355 1.41.531 2.297.531 1.031 0 1.813-.195 2.344-.594.539-.406.813-.969.813-1.687 0-.551-.168-1.004-.5-1.359-.324-.363-.844-.633-1.562-.812l-2.359-.578c-1.262-.312-2.184-.797-2.766-1.453-.574-.656-.859-1.469-.859-2.437 0-.758.191-1.422.578-1.984.395-.562.957-.992 1.688-1.297.727-.312 1.594-.469 2.594-.469 1.289 0 2.305.184 3.047.547.738.355 1.313.855 1.719 1.5l-1.156 1.141h-.266c-.449-.52-.937-.891-1.469-1.109-.523-.227-1.148-.344-1.875-.344-.918 0-1.621.168-2.109.5-.492.324-.734.797-.734 1.422 0 .563.172 1.023.516 1.375.344.344.945.621 1.813.828l2.313.563c1.219.281 2.098.758 2.641 1.422s.813 1.508.813 2.516c0 .824-.199 1.547-.594 2.172-.387.625-.969 1.117-1.75 1.469-.781.344-1.742.516-2.875.516zm10.022-16.938c-.437 0-.797-.133-1.078-.406-.273-.281-.406-.633-.406-1.062 0-.414.133-.758.406-1.031.281-.281.641-.422 1.078-.422s.789.141 1.063.422c.281.273.422.617.422 1.031 0 .43-.141.781-.422 1.063-.273.273-.625.406-1.062.406zm1.031 16.672h-2.062v-13.984h2.063zm0 0"/><use xlink:href="#E"/><path d="M395.61 487.702c-.992 0-1.773-.281-2.344-.844-.562-.562-.844-1.398-.844-2.516v-16.5h2.078v16.359c0 .586.109 1.008.328 1.266.227.262.578.391 1.047.391.289 0 .582-.047.875-.141l.172.047.25 1.625c-.156.094-.375.164-.656.219a4.19 4.19 0 0 1-.906.094zm0 0"/><use xlink:href="#E" x="23.65"/><path d="M420.9 493.374c-2.211 0-3.824-.371-4.844-1.109-1.012-.742-1.516-1.715-1.516-2.922 0-.793.234-1.422.703-1.891.477-.457 1.172-.785 2.078-.984v-.266c-.43-.25-.75-.535-.969-.859-.219-.332-.328-.727-.328-1.187 0-.539.172-.977.516-1.312.344-.344.852-.602 1.531-.781v-.266c-1.523-.801-2.281-2.109-2.281-3.922 0-.906.203-1.711.609-2.422.414-.707 1.008-1.258 1.781-1.656.77-.406 1.664-.609 2.688-.609 1.176 0 2.156.262 2.938.781.301-.332.523-.687.672-1.062s.238-.797.281-1.266l.266-.172 1.703.406c-.086.711-.297 1.309-.641 1.797s-.828.898-1.453 1.219v.266c.445.355.773.773.984 1.25.219.48.328 1.039.328 1.672 0 .875-.215 1.668-.641 2.375-.418.699-1.012 1.25-1.781 1.656-.762.398-1.648.594-2.656.594-.117 0-.328-.008-.641-.031l-.734-.031c-.449 0-.805.117-1.062.344s-.391.523-.391.875c0 .438.141.762.422.969.289.211.758.328 1.406.359l3.313.109c1.426.055 2.484.387 3.172 1 .688.605 1.031 1.469 1.031 2.594 0 .844-.227 1.598-.672 2.266-.449.676-1.164 1.211-2.141 1.609-.969.406-2.195.609-3.672.609zm-.031-12.453c.988 0 1.754-.254 2.297-.766.539-.52.813-1.242.813-2.172 0-.957-.273-1.695-.812-2.219-.531-.531-1.297-.797-2.297-.797s-1.762.262-2.281.781-.781 1.266-.781 2.234c0 .938.258 1.664.781 2.172s1.281.766 2.281.766zm.031 10.672c1.031 0 1.867-.117 2.516-.344.656-.23 1.125-.531 1.406-.906.289-.375.438-.797.438-1.266 0-.406-.078-.742-.234-1-.156-.25-.406-.437-.75-.562s-.82-.207-1.422-.25l-3.125-.141h-.437c-1.75.023-2.625.695-2.625 2.031 0 1.625 1.41 2.438 4.234 2.438zm0 0"/><use xlink:href="#D" x="88.619"/><path d="M467.154 191.662l-1.484.844-1.516-2.687-3.937 1.453 1.5 2.641-1.453.828-1.656-2.891-5.25 1.922-.922-1.625 5.25-1.937-2.109-3.687-5.25 1.938-.922-1.625 5.25-1.937-1.375-2.406 1.453-.828 1.516 2.656 3.938-1.437-1.516-2.656 1.484-.844 1.656 2.906 5.234-1.922.922 1.641-5.219 1.906 2.094 3.688 5.219-1.922.938 1.641-5.219 1.922zm-9.969-5.703l2.094 3.688 3.938-1.469-2.094-3.656zm2.624 19.658c-.898-1.562-1.25-3.008-1.062-4.328.188-1.312.828-2.457 1.922-3.437l1.422 1.047.109.281c-.812.82-1.293 1.66-1.437 2.516-.137.852.117 1.836.766 2.953.645 1.133 1.395 1.852 2.25 2.156.863.301 1.801.164 2.813-.406.988-.562 1.566-1.297 1.734-2.203.176-.906-.109-2.012-.859-3.312l-1-1.75 1.578-.906.906 1.578c.57 1 1.281 1.656 2.125 1.969.852.32 1.734.223 2.641-.297.883-.5 1.395-1.137 1.531-1.906.133-.758-.062-1.609-.594-2.547-.93-1.613-2.23-2.398-3.906-2.359l-.203-.234.547-1.703c.988 0 1.941.281 2.859.844.926.555 1.711 1.387 2.359 2.5.582 1.031.922 2 1.016 2.906s-.059 1.719-.453 2.438c-.387.719-.996 1.316-1.828 1.797-.805.445-1.633.613-2.484.5s-1.672-.453-2.453-1.016l-.234.125c.352 1.207.332 2.281-.062 3.219s-1.105 1.695-2.125 2.281c-1.531.863-2.977 1.078-4.328.641-1.344-.437-2.527-1.555-3.547-3.344zm5.63 9.597c-.242-.418-.312-.812-.219-1.187s.336-.672.734-.891a1.49 1.49 0 0 1 1.141-.187c.383.102.695.363.938.781.238.426.313.828.219 1.203-.094.383-.34.688-.734.906-.387.227-.773.285-1.156.172-.375-.117-.684-.383-.922-.797zm9.563-5.453c-.242-.414-.312-.805-.219-1.172.094-.375.332-.676.719-.906.383-.219.77-.273 1.156-.172s.695.367.938.781c.238.43.305.828.203 1.203-.094.375-.336.68-.719.906-.387.219-.773.273-1.156.156-.375-.113-.684-.379-.922-.797zm13.956 9.055l-14.531 8.281 4.422 7.75-1.562.891-5.5-9.641 16.094-9.172zm0 0"/><use xlink:href="#F"/><path d="M486.036 251.11l12.156-6.922.969 1.688-1.922 1.094.094.266c.938-.008 1.77.195 2.5.609.738.418 1.363 1.078 1.875 1.984.832 1.445 1.063 2.711.688 3.797-.367 1.082-1.324 2.066-2.875 2.953l-7.812 4.453-1.031-1.781 7.781-4.437c.727-.418 1.258-.844 1.594-1.281.344-.437.504-.914.484-1.422-.023-.5-.215-1.074-.578-1.719-.625-1.094-1.492-1.77-2.594-2.031s-2.461.07-4.062.984l-6.234 3.547zm0 0"/><use xlink:href="#G"/><path d="M503.086 281.535c-.781-1.375-1-2.605-.656-3.687s1.211-2.027 2.609-2.828l8.109-4.609 1.031 1.797-8.062 4.578c-1.844 1.051-2.273 2.445-1.281 4.188.625 1.094 1.477 1.754 2.563 1.984s2.438-.121 4.063-1.047l6.234-3.547 1.016 1.813-12.156 6.922-.953-1.703 1.906-1.078-.094-.25c-.98-.012-1.82-.211-2.516-.594-.687-.375-1.293-1.023-1.812-1.937zm0 0"/><use xlink:href="#F" x="30.093" y="52.786"/><use xlink:href="#G" x="22.12" y="38.802"/><path d="M534.269 322.54l-4.766-8.312c-1.437.895-2.312 1.863-2.625 2.906-.312 1.051-.148 2.145.5 3.281.5.875 1.051 1.484 1.656 1.828.613.352 1.332.492 2.156.422l.125.234-.016 1.563c-1.074.145-2.086-.027-3.031-.516s-1.781-1.367-2.5-2.625c-.668-1.18-1.012-2.32-1.031-3.422-.012-1.094.32-2.141 1-3.141.688-.988 1.723-1.879 3.109-2.672 1.375-.789 2.672-1.219 3.891-1.281 1.227-.062 2.313.195 3.25.766.938.563 1.711 1.383 2.328 2.453.883 1.563 1.141 3.031.766 4.406s-1.43 2.555-3.156 3.547l-1.391.734zm.641-2.328c1.281-.773 2.063-1.594 2.344-2.469s.129-1.824-.453-2.844c-.605-1.062-1.383-1.723-2.328-1.984-.937-.27-2.086-.109-3.437.484zM184.19 285.49l1.469.859-1.562 2.641 3.203 2.688 1.547-2.609 1.453.859-1.687 2.875 4.281 3.594-.953 1.609-4.281-3.594-2.156 3.656 4.281 3.594-.953 1.625-4.281-3.594-1.406 2.375-1.453-.859 1.563-2.641-3.219-2.672-1.547 2.625-1.469-.859 1.688-2.891-4.266-3.594.953-1.609 4.266 3.594 2.156-3.656-4.266-3.594.953-1.625 4.266 3.594zm0 11.469l2.156-3.656-3.219-2.672-2.141 3.625zm0 0"/><path d="M195.834 289.719c-.875-.52-1.523-1.035-1.953-1.547-.426-.52-.734-1.148-.922-1.891s-.359-1.836-.516-3.297l-.234-2.5c-.094-.926-.219-1.711-.375-2.359-.164-.645-.41-1.223-.734-1.734s-.773-.937-1.359-1.281c-.957-.562-1.82-.734-2.594-.516-.781.219-1.484.867-2.109 1.938-.5.844-.742 1.715-.734 2.609.012.887.262 1.734.75 2.547l-.125.281-1.828.422c-.562-1.051-.832-2.16-.812-3.328.012-1.164.367-2.336 1.063-3.516.668-1.133 1.414-1.961 2.234-2.484.824-.531 1.684-.773 2.578-.734s1.797.328 2.703.859a5.28 5.28 0 0 1 1.734 1.625c.438.668.773 1.434 1 2.297s.398 1.891.5 3.078l.25 2.531.359 2.266c.125.555.305 1.012.531 1.375.23.355.547.652.953.891l4.766-8.109 1.547.906-5.937 10.094zm9.245-13.776c-.25.418-.562.68-.937.781s-.758.043-1.141-.187c-.375-.219-.613-.52-.719-.906s-.031-.785.219-1.203c.242-.414.547-.676.922-.781.383-.102.77-.047 1.156.172.383.23.625.543.719.938.094.387.02.781-.219 1.188zm-9.484-5.578c-.25.418-.562.68-.937.781-.375.094-.754.031-1.141-.187-.375-.227-.609-.531-.703-.906-.102-.383-.031-.785.219-1.203.242-.414.547-.676.922-.781.375-.113.762-.055 1.156.172.387.23.625.543.719.938.086.387.008.781-.234 1.188zm5.304-24.119l1.547.922-4.406 7.5 5.813 3.422 3.969-6.75 1.563.922-3.969 6.75 7.047 4.141-1.109 1.891-15.969-9.406zm20.781 1.779c-.668 1.137-1.492 1.98-2.469 2.531s-2.066.789-3.266.703c-1.195-.094-2.461-.535-3.797-1.328-1.332-.781-2.336-1.676-3.016-2.687s-1.004-2.078-.984-3.203c.012-1.125.352-2.254 1.016-3.391.68-1.133 1.508-1.977 2.484-2.531.969-.562 2.059-.797 3.266-.703s2.477.531 3.813 1.313c1.332.793 2.332 1.695 3 2.703.664 1 .992 2.07.984 3.203-.012 1.125-.355 2.258-1.031 3.391zm-1.594-.937c.707-1.207.867-2.352.484-3.437s-1.371-2.094-2.953-3.031c-1.594-.937-2.953-1.305-4.078-1.109-1.133.188-2.055.887-2.766 2.094-.695 1.199-.859 2.34-.484 3.422s1.359 2.094 2.953 3.031c1.586.938 2.949 1.313 4.094 1.125 1.133-.195 2.051-.895 2.75-2.094zm9.736-12.89c-.625 1.063-1.43 1.875-2.406 2.438-.98.555-2.082.797-3.312.734-1.227-.07-2.5-.492-3.812-1.266-1.32-.77-2.312-1.676-2.969-2.719-.656-1.051-.977-2.141-.969-3.266.012-1.133.328-2.234.953-3.297.75-1.27 1.59-2.141 2.516-2.609s1.898-.641 2.906-.516l.156 1.734-.125.219c-.863-.062-1.598.074-2.203.406-.613.336-1.16.906-1.641 1.719-.426.742-.629 1.492-.609 2.25.012.762.273 1.508.781 2.234.512.719 1.277 1.375 2.297 1.969 1 .594 1.945.938 2.828 1.031s1.664-.031 2.344-.375c.688-.344 1.242-.883 1.672-1.625.5-.844.719-1.648.656-2.422-.055-.77-.398-1.555-1.031-2.359l.125-.234 1.391-.75c.832.906 1.301 1.934 1.406 3.078.113 1.148-.203 2.355-.953 3.625zm6.749-11.463c-.805 1.367-1.762 2.168-2.875 2.406s-2.363-.047-3.75-.859l-8.031-4.734 1.047-1.781 7.984 4.703c1.836 1.074 3.254.746 4.266-.984.645-1.082.797-2.145.453-3.187-.344-1.051-1.324-2.051-2.937-3l-6.172-3.641 1.063-1.797 12.047 7.094-1 1.688-1.891-1.109-.172.188c.488.867.738 1.695.75 2.484.02.781-.242 1.625-.781 2.531zm7.794-13.232c-.449.762-.965 1.406-1.547 1.938-.586.523-1.18.902-1.781 1.141s-1.18.32-1.734.234l-.453-1.687.125-.219c.813-.051 1.539-.258 2.172-.625.633-.375 1.176-.945 1.625-1.719.52-.883.742-1.66.672-2.328-.062-.664-.406-1.18-1.031-1.547-.48-.281-.961-.367-1.437-.266-.469.105-.961.418-1.484.938l-1.687 1.734c-.906.93-1.789 1.477-2.656 1.641s-1.711.008-2.547-.484c-.656-.383-1.125-.883-1.406-1.5-.289-.625-.383-1.328-.281-2.109.105-.789.414-1.617.922-2.484.656-1.113 1.328-1.895 2.016-2.344.688-.457 1.414-.695 2.172-.719l.391 1.578-.125.234c-.676.117-1.242.344-1.703.688s-.875.828-1.25 1.453c-.469.793-.68 1.484-.641 2.078.031.586.32 1.031.859 1.344.48.281.961.367 1.438.25.469-.125 1.012-.5 1.625-1.125l1.656-1.719c.875-.914 1.742-1.437 2.594-1.562.844-.125 1.695.074 2.563.594.719.418 1.242.953 1.578 1.609.332.648.453 1.398.359 2.25s-.43 1.766-1 2.734zm0 0"/></svg>