<svg xmlns="http://www.w3.org/2000/svg" xmlns:xlink="http://www.w3.org/1999/xlink" width="90" zoomAndPan="magnify" viewBox="0 0 67.5 54" height="72" preserveAspectRatio="xMidYMid meet" version="1.0"><defs><clipPath id="59883a15da"><path d="M 9.230469 2.746094 L 54.359375 2.746094 L 54.359375 48.070312 L 9.230469 48.070312 Z M 9.230469 2.746094 " clip-rule="nonzero"/></clipPath><clipPath id="ea55bfb49b"><path d="M 31.792969 2.746094 C 19.332031 2.746094 9.230469 12.894531 9.230469 25.410156 C 9.230469 37.925781 19.332031 48.070312 31.792969 48.070312 C 44.257812 48.070312 54.359375 37.925781 54.359375 25.410156 C 54.359375 12.894531 44.257812 2.746094 31.792969 2.746094 Z M 31.792969 2.746094 " clip-rule="nonzero"/></clipPath><clipPath id="653599b5a7"><path d="M 11.304688 4.527344 L 52.578125 4.527344 L 52.578125 45.800781 L 11.304688 45.800781 Z M 11.304688 4.527344 " clip-rule="nonzero"/></clipPath><clipPath id="a7a597a7c7"><path d="M 31.941406 4.527344 C 20.546875 4.527344 11.304688 13.765625 11.304688 25.164062 C 11.304688 36.5625 20.546875 45.800781 31.941406 45.800781 C 43.339844 45.800781 52.578125 36.5625 52.578125 25.164062 C 52.578125 13.765625 43.339844 4.527344 31.941406 4.527344 Z M 31.941406 4.527344 " clip-rule="nonzero"/></clipPath><clipPath id="4517b2d32e"><path d="M 14.511719 11.378906 L 49 11.378906 L 49 38.828125 L 14.511719 38.828125 Z M 14.511719 11.378906 " clip-rule="nonzero"/></clipPath></defs><g clip-path="url(#59883a15da)"><g clip-path="url(#ea55bfb49b)"><path fill="#000000" d="M 9.230469 2.746094 L 54.359375 2.746094 L 54.359375 48.070312 L 9.230469 48.070312 Z M 9.230469 2.746094 " fill-opacity="1" fill-rule="nonzero"/></g></g><g clip-path="url(#653599b5a7)"><g clip-path="url(#a7a597a7c7)"><path fill="#ffffff" d="M 11.304688 4.527344 L 52.578125 4.527344 L 52.578125 45.800781 L 11.304688 45.800781 Z M 11.304688 4.527344 " fill-opacity="1" fill-rule="nonzero"/></g></g><g clip-path="url(#4517b2d32e)"><path fill="#000000" d="M 48.484375 24.253906 C 49.375 22.902344 48.75 20.210938 44.367188 16.828125 C 43.980469 15.625 42.421875 14.289062 40.128906 13.238281 C 37.523438 12.046875 34.464844 11.453125 31.511719 11.570312 C 27.800781 11.71875 24.414062 12.925781 21.453125 15.171875 C 15.132812 19.953125 14.511719 23.058594 15.097656 24.824219 C 15.753906 26.777344 18.222656 27.9375 21.878906 27.996094 C 21.886719 27.996094 21.894531 27.996094 21.902344 27.996094 C 24.21875 27.917969 26.03125 27.113281 27.621094 26.011719 C 27.46875 26.425781 27.441406 26.875 27.550781 27.351562 C 28.054688 29.488281 31.148438 31.441406 35.078125 32.105469 C 35.085938 32.105469 35.097656 32.109375 35.109375 32.109375 C 39.457031 32.546875 41.015625 35.242188 42.046875 37.027344 C 42.585938 37.957031 42.972656 38.632812 43.621094 38.792969 C 43.710938 38.8125 43.800781 38.824219 43.886719 38.824219 C 44.117188 38.824219 44.351562 38.75 44.589844 38.609375 C 44.597656 38.605469 44.613281 38.59375 44.621094 38.585938 C 45.773438 37.753906 44.996094 35.917969 43.917969 33.371094 C 43.617188 32.664062 43.300781 31.917969 43.003906 31.144531 C 44.996094 32.128906 46.476562 32.195312 47.410156 31.332031 C 48.789062 30.066406 48.339844 27.320312 47.433594 25.046875 C 47.863281 24.90625 48.230469 24.640625 48.484375 24.253906 Z M 42.414062 16.609375 C 42.792969 16.871094 43.148438 17.125 43.480469 17.371094 C 43.5 17.824219 43.285156 18.273438 42.851562 18.71875 C 42.808594 18.761719 42.765625 18.800781 42.722656 18.839844 C 41.617188 18.125 40.390625 17.734375 39.097656 17.882812 C 35.605469 17.984375 33.25 19.789062 31.089844 21.75 C 31.078125 21.75 31.066406 21.75 31.054688 21.75 C 29.792969 21.714844 28.347656 21.476562 26.882812 21.1875 C 27.359375 20.746094 27.824219 20.304688 28.277344 19.878906 C 32.84375 15.558594 36.144531 12.4375 42.414062 16.609375 Z M 41.066406 28.15625 C 41.113281 28.394531 41.171875 28.628906 41.230469 28.863281 C 37.382812 26.292969 34.136719 24.183594 31.203125 24.183594 C 30.671875 24.183594 30.144531 24.253906 29.632812 24.40625 C 30.050781 24.035156 30.460938 23.648438 30.875 23.269531 C 31.070312 23.089844 31.265625 22.90625 31.460938 22.726562 C 35.351562 22.746094 40.214844 21.800781 42.734375 20.066406 C 43.980469 21.042969 45.078125 22.496094 45.882812 24.023438 C 45.742188 23.96875 45.601562 23.898438 45.460938 23.8125 C 43.847656 22.832031 42.597656 22.632812 41.746094 23.226562 C 40.757812 23.917969 40.523438 25.574219 41.066406 28.15625 Z M 32.574219 21.730469 C 34.414062 20.164062 36.382812 18.925781 39.140625 18.851562 C 39.152344 18.851562 39.171875 18.851562 39.183594 18.847656 C 39.324219 18.828125 39.472656 18.820312 39.613281 18.820312 C 40.382812 18.820312 41.140625 19.058594 41.863281 19.46875 C 39.710938 20.800781 35.875 21.601562 32.574219 21.730469 Z M 22.054688 15.933594 C 28.066406 11.382812 35.121094 12.011719 39.71875 14.117188 C 39.820312 14.164062 39.921875 14.210938 40.023438 14.261719 C 34.84375 12.328125 31.441406 15.542969 27.59375 19.171875 C 27.0625 19.671875 26.519531 20.1875 25.957031 20.699219 C 25.859375 20.777344 25.769531 20.855469 25.671875 20.933594 C 25.511719 20.898438 25.347656 20.867188 25.191406 20.835938 C 23.113281 20.398438 21.007812 19.953125 19.253906 19.953125 C 18.636719 19.953125 18.0625 20.011719 17.546875 20.140625 C 18.585938 18.832031 20.101562 17.410156 22.054688 15.933594 Z M 24.609375 21.703125 C 21.140625 23.960938 18.121094 23.402344 16.625 21.738281 C 17.882812 20.347656 21.136719 20.972656 24.609375 21.703125 Z M 21.882812 27.023438 C 18.679688 26.96875 16.546875 26.050781 16.035156 24.519531 C 15.847656 23.964844 15.875 23.328125 16.105469 22.625 C 16.109375 22.621094 16.113281 22.617188 16.113281 22.617188 C 18.078125 24.539062 21.8125 25.0625 25.917969 21.976562 C 27.339844 22.273438 28.769531 22.542969 30.089844 22.660156 C 27.730469 24.855469 25.46875 26.898438 21.882812 27.023438 Z M 43.007812 33.742188 C 43.769531 35.535156 44.554688 37.386719 44.050781 37.789062 C 43.988281 37.824219 43.914062 37.859375 43.859375 37.84375 C 43.617188 37.785156 43.238281 37.121094 42.898438 36.539062 C 41.839844 34.703125 40.0625 31.632812 35.222656 31.136719 C 31.273438 30.46875 28.855469 28.613281 28.507812 27.125 C 28.371094 26.535156 28.574219 26.039062 29.109375 25.644531 C 32.277344 24.042969 36.136719 26.625 41.015625 29.890625 C 41.234375 30.03125 41.449219 30.175781 41.667969 30.324219 C 42.074219 31.527344 42.558594 32.683594 43.007812 33.742188 Z M 46.746094 30.621094 C 46.101562 31.214844 44.773438 31.007812 43.011719 30.050781 C 42.839844 29.9375 42.667969 29.824219 42.5 29.710938 C 42.316406 29.132812 42.15625 28.550781 42.03125 27.960938 C 41.59375 25.882812 41.703125 24.449219 42.320312 24.019531 C 42.804688 23.679688 43.742188 23.902344 44.957031 24.636719 C 45.441406 24.933594 45.945312 25.101562 46.425781 25.144531 C 47.445312 27.585938 47.597656 29.835938 46.746094 30.621094 Z M 47.664062 23.71875 C 47.519531 23.9375 47.300781 24.078125 47.046875 24.148438 C 46.242188 22.457031 45.019531 20.667969 43.519531 19.429688 C 43.53125 19.421875 43.542969 19.410156 43.550781 19.398438 C 43.96875 18.980469 44.246094 18.535156 44.378906 18.074219 C 47.925781 20.992188 48.140625 22.996094 47.664062 23.71875 Z M 47.664062 23.71875 " fill-opacity="1" fill-rule="nonzero"/></g></svg>