<svg width="240" height="60" viewBox="0 0 240 60" fill="none" xmlns="http://www.w3.org/2000/svg">
  <!-- Brain/Neural Network Icon (Dark Mode) -->
  <g id="brain-icon">
    <!-- Central node -->
    <circle cx="30" cy="30" r="4" fill="#60A5FA"/>
    <!-- Neural connections -->
    <path d="M20 15 L30 26" stroke="#60A5FA" stroke-width="2" stroke-linecap="round"/>
    <path d="M40 15 L30 26" stroke="#60A5FA" stroke-width="2" stroke-linecap="round"/>
    <path d="M15 30 L26 30" stroke="#60A5FA" stroke-width="2" stroke-linecap="round"/>
    <path d="M45 30 L34 30" stroke="#60A5FA" stroke-width="2" stroke-linecap="round"/>
    <path d="M20 45 L30 34" stroke="#60A5FA" stroke-width="2" stroke-linecap="round"/>
    <path d="M40 45 L30 34" stroke="#60A5FA" stroke-width="2" stroke-linecap="round"/>
    <!-- Outer nodes -->
    <circle cx="20" cy="15" r="3" fill="#60A5FA"/>
    <circle cx="40" cy="15" r="3" fill="#60A5FA"/>
    <circle cx="15" cy="30" r="3" fill="#60A5FA"/>
    <circle cx="45" cy="30" r="3" fill="#60A5FA"/>
    <circle cx="20" cy="45" r="3" fill="#60A5FA"/>
    <circle cx="40" cy="45" r="3" fill="#60A5FA"/>
    <!-- Tech element - circuit line -->
    <path d="M12 20 L12 16 L16 16" stroke="#34D399" stroke-width="1.5" stroke-linecap="round"/>
    <path d="M48 40 L48 44 L44 44" stroke="#34D399" stroke-width="1.5" stroke-linecap="round"/>
  </g>
  
  <!-- Text: neurohackingly (White for dark mode) -->
  <text x="68" y="38" font-family="Inter, -apple-system, BlinkMacSystemFont, 'Segoe UI', sans-serif" font-size="24" font-weight="700" fill="#F9FAFB" letter-spacing="-0.02em">
    neuro<tspan fill="#60A5FA">hack</tspan>ingly
  </text>
</svg>