<svg xmlns="http://www.w3.org/2000/svg" xmlns:xlink="http://www.w3.org/1999/xlink" width="90" zoomAndPan="magnify" viewBox="0 0 67.5 54" height="72" preserveAspectRatio="xMidYMid meet" version="1.0"><defs><clipPath id="f7387e636e"><path d="M 9.230469 2.746094 L 54.480469 2.746094 L 54.480469 48 L 9.230469 48 Z M 9.230469 2.746094 " clip-rule="nonzero"/></clipPath><clipPath id="3c94c64a95"><path d="M 11.304688 4.527344 L 52.847656 4.527344 L 52.847656 46.070312 L 11.304688 46.070312 Z M 11.304688 4.527344 " clip-rule="nonzero"/></clipPath><clipPath id="df13df5e29"><path d="M 15.367188 12 L 50.234375 12 L 50.234375 38.566406 L 15.367188 38.566406 Z M 15.367188 12 " clip-rule="nonzero"/></clipPath></defs><g clip-path="url(#f7387e636e)"><path fill="#f6c546" d="M 31.855469 2.75 C 19.359375 2.75 9.230469 12.878906 9.230469 25.371094 C 9.230469 37.867188 19.359375 47.996094 31.855469 47.996094 C 44.351562 47.996094 54.480469 37.867188 54.480469 25.371094 C 54.480469 12.878906 44.351562 2.75 31.855469 2.75 " fill-opacity="1" fill-rule="nonzero"/></g><g clip-path="url(#3c94c64a95)"><path fill="#000000" d="M 32.078125 4.527344 C 20.605469 4.527344 11.304688 13.828125 11.304688 25.296875 C 11.304688 36.769531 20.605469 46.070312 32.078125 46.070312 C 43.546875 46.070312 52.847656 36.769531 52.847656 25.296875 C 52.847656 13.828125 43.546875 4.527344 32.078125 4.527344 " fill-opacity="1" fill-rule="nonzero"/></g><path fill="#2d3f4e" d="M 32.792969 36.113281 C 32.792969 36.125 32.792969 36.136719 32.792969 36.148438 C 32.792969 36.175781 32.789062 36.199219 32.789062 36.226562 C 32.789062 36.199219 32.792969 36.175781 32.792969 36.148438 C 32.792969 36.136719 32.792969 36.125 32.792969 36.113281 " fill-opacity="1" fill-rule="nonzero"/><g clip-path="url(#df13df5e29)"><path fill="#f6c546" d="M 43.496094 28.402344 C 44.039062 28.402344 44.480469 27.960938 44.480469 27.421875 C 44.480469 26.882812 44.039062 26.4375 43.496094 26.4375 C 42.957031 26.4375 42.511719 26.882812 42.511719 27.421875 C 42.511719 27.960938 42.957031 28.402344 43.496094 28.402344 Z M 43.496094 28.710938 C 44.207031 28.710938 44.789062 28.128906 44.789062 27.421875 C 44.789062 26.710938 44.207031 26.132812 43.496094 26.132812 C 42.785156 26.132812 42.207031 26.710938 42.207031 27.421875 C 42.207031 28.128906 42.785156 28.710938 43.496094 28.710938 Z M 41.257812 30.71875 C 41.800781 30.71875 42.238281 30.28125 42.238281 29.734375 C 42.238281 29.195312 41.800781 28.757812 41.257812 28.757812 C 40.71875 28.757812 40.273438 29.195312 40.273438 29.734375 C 40.273438 30.28125 40.71875 30.71875 41.257812 30.71875 Z M 41.257812 31.023438 C 41.972656 31.023438 42.550781 30.445312 42.550781 29.734375 C 42.550781 29.03125 41.972656 28.449219 41.257812 28.449219 C 40.546875 28.449219 39.964844 29.03125 39.964844 29.734375 C 39.964844 30.445312 40.546875 31.023438 41.257812 31.023438 Z M 30.929688 31.402344 C 31.46875 31.402344 31.910156 30.964844 31.910156 30.425781 C 31.910156 29.886719 31.46875 29.445312 30.929688 29.445312 C 30.386719 29.445312 29.945312 29.886719 29.945312 30.425781 C 29.945312 30.964844 30.386719 31.402344 30.929688 31.402344 Z M 30.929688 31.710938 C 31.640625 31.710938 32.21875 31.136719 32.21875 30.425781 C 32.21875 29.714844 31.640625 29.136719 30.929688 29.136719 C 30.21875 29.136719 29.636719 29.714844 29.636719 30.425781 C 29.636719 31.136719 30.21875 31.710938 30.929688 31.710938 Z M 26.453125 29.6875 C 26.992188 29.6875 27.433594 29.25 27.433594 28.707031 C 27.433594 28.167969 26.992188 27.730469 26.453125 27.730469 C 25.910156 27.730469 25.46875 28.167969 25.46875 28.707031 C 25.46875 29.25 25.910156 29.6875 26.453125 29.6875 Z M 26.453125 29.996094 C 27.164062 29.996094 27.746094 29.414062 27.746094 28.707031 C 27.746094 28 27.164062 27.421875 26.453125 27.421875 C 25.738281 27.421875 25.160156 28 25.160156 28.707031 C 25.160156 29.414062 25.738281 29.996094 26.453125 29.996094 Z M 22.488281 28.488281 C 23.035156 28.488281 23.472656 28.046875 23.472656 27.507812 C 23.472656 26.964844 23.035156 26.523438 22.488281 26.523438 C 21.949219 26.523438 21.507812 26.964844 21.507812 27.507812 C 21.507812 28.046875 21.949219 28.488281 22.488281 28.488281 Z M 22.488281 28.796875 C 23.203125 28.796875 23.785156 28.214844 23.785156 27.507812 C 23.785156 26.796875 23.203125 26.21875 22.488281 26.21875 C 21.78125 26.21875 21.199219 26.796875 21.199219 27.507812 C 21.199219 28.214844 21.78125 28.796875 22.488281 28.796875 Z M 29.8125 25.054688 C 30.351562 25.054688 30.789062 24.613281 30.789062 24.070312 C 30.789062 23.53125 30.351562 23.09375 29.8125 23.09375 C 29.265625 23.09375 28.828125 23.53125 28.828125 24.070312 C 28.828125 24.613281 29.265625 25.054688 29.8125 25.054688 Z M 29.8125 25.359375 C 30.523438 25.359375 31.101562 24.78125 31.101562 24.070312 C 31.101562 23.367188 30.523438 22.785156 29.8125 22.785156 C 29.097656 22.785156 28.515625 23.367188 28.515625 24.070312 C 28.515625 24.78125 29.097656 25.359375 29.8125 25.359375 Z M 37.214844 26.941406 C 37.753906 26.941406 38.195312 26.5 38.195312 25.960938 C 38.195312 25.421875 37.753906 24.980469 37.214844 24.980469 C 36.671875 24.980469 36.230469 25.421875 36.230469 25.960938 C 36.230469 26.5 36.671875 26.941406 37.214844 26.941406 Z M 37.214844 27.25 C 37.925781 27.25 38.507812 26.671875 38.507812 25.960938 C 38.507812 25.25 37.925781 24.675781 37.214844 24.675781 C 36.5 24.675781 35.917969 25.25 35.917969 25.960938 C 35.917969 26.671875 36.5 27.25 37.214844 27.25 Z M 43.582031 22.097656 C 44.335938 22.097656 44.957031 21.480469 44.957031 20.726562 C 44.957031 19.972656 44.335938 19.355469 43.582031 19.355469 C 42.824219 19.355469 42.210938 19.972656 42.210938 20.726562 C 42.210938 21.480469 42.824219 22.097656 43.582031 22.097656 Z M 49.773438 28.234375 C 49.730469 27.785156 49.46875 27.082031 49.320312 26.738281 C 49.253906 26.578125 49.257812 26.507812 49.273438 26.390625 C 49.277344 26.359375 49.285156 26.320312 49.289062 26.261719 C 49.289062 26.230469 49.292969 26.199219 49.292969 26.164062 L 41.382812 29.835938 L 40.84375 32.34375 C 40.945312 32.402344 41.050781 32.503906 41.171875 32.621094 C 41.265625 32.710938 41.359375 32.804688 41.433594 32.855469 C 42.003906 33.273438 42.195312 33.414062 42.835938 33.667969 C 42.878906 33.683594 42.910156 33.699219 42.929688 33.714844 C 42.953125 33.726562 42.964844 33.734375 42.992188 33.742188 L 43.578125 33.914062 C 44.238281 34.066406 44.960938 34.074219 45.601562 33.9375 L 45.628906 33.929688 C 45.871094 33.882812 46.0625 33.84375 46.285156 33.761719 C 46.335938 33.742188 46.386719 33.726562 46.441406 33.707031 C 46.492188 33.6875 46.546875 33.671875 46.597656 33.652344 L 46.628906 33.640625 C 46.679688 33.621094 46.703125 33.613281 46.75 33.589844 C 47.050781 33.460938 47.355469 33.289062 47.617188 33.105469 L 47.675781 33.0625 C 48.230469 32.65625 48.9375 31.960938 49.253906 31.234375 C 49.28125 31.160156 49.320312 31.085938 49.359375 31.011719 C 49.410156 30.910156 49.457031 30.816406 49.492188 30.714844 C 49.613281 30.34375 49.695312 30 49.746094 29.671875 C 49.816406 29.191406 49.824219 28.773438 49.773438 28.234375 Z M 41.09375 29.835938 L 32.386719 27.421875 L 31.128906 30.324219 L 40.554688 32.332031 C 40.554688 32.332031 40.554688 32.332031 40.558594 32.328125 Z M 40.394531 32.589844 L 31.046875 30.597656 L 30.570312 33.832031 C 30.691406 33.917969 30.808594 34.070312 30.949219 34.273438 C 30.980469 34.320312 31.011719 34.359375 31.03125 34.386719 C 31.300781 34.726562 31.707031 35.09375 32.101562 35.347656 L 32.789062 35.742188 C 33.191406 35.980469 33.753906 36.152344 34.453125 36.253906 C 35.453125 36.40625 36.574219 36.226562 37.613281 35.746094 C 38.050781 35.546875 38.519531 35.230469 38.921875 34.863281 C 39.179688 34.628906 39.386719 34.398438 39.589844 34.113281 C 39.820312 33.800781 39.992188 33.539062 40.144531 33.210938 C 40.164062 33.167969 40.179688 33.140625 40.195312 33.113281 C 40.203125 33.09375 40.214844 33.078125 40.222656 33.050781 C 40.230469 33.039062 40.242188 33.007812 40.257812 32.960938 C 40.316406 32.796875 40.359375 32.675781 40.394531 32.589844 Z M 30.773438 30.515625 L 26.316406 28.804688 L 26.152344 26.167969 L 22.628906 27.601562 L 22.382812 36.515625 L 23.789062 34.410156 L 30.238281 33.84375 C 30.253906 33.832031 30.269531 33.820312 30.285156 33.808594 Z M 30.015625 34.148438 L 23.949219 34.679688 L 22.445312 36.933594 C 23.546875 38.035156 24.652344 38.40625 25.644531 38.007812 C 26.570312 37.632812 27.1875 36.640625 27.1875 36.144531 L 27.1875 36.078125 L 27.226562 36.027344 C 27.355469 35.855469 27.414062 35.753906 27.449219 35.691406 C 27.539062 35.535156 27.59375 35.5 27.777344 35.472656 C 27.839844 35.464844 27.9375 35.453125 28.101562 35.414062 C 28.550781 35.308594 28.96875 35.113281 29.304688 34.859375 C 29.332031 34.835938 29.359375 34.816406 29.382812 34.800781 C 29.414062 34.777344 29.441406 34.757812 29.46875 34.730469 C 29.699219 34.519531 29.871094 34.335938 30.015625 34.148438 Z M 22.34375 27.652344 L 17.238281 27.816406 C 17.195312 27.882812 17.144531 27.9375 17.085938 27.996094 C 16.941406 28.140625 16.726562 28.359375 16.425781 29.011719 C 16.21875 29.476562 16.125 30.242188 16.210938 30.757812 C 16.257812 31.015625 16.316406 31.207031 16.390625 31.449219 L 16.414062 31.515625 C 16.464844 31.679688 16.625 31.964844 16.738281 32.121094 L 17.351562 32.816406 C 17.421875 32.878906 17.484375 32.925781 17.539062 32.964844 C 17.664062 33.050781 17.808594 33.152344 17.808594 33.394531 C 17.796875 34.109375 17.964844 34.773438 18.28125 35.261719 L 18.71875 35.847656 C 18.953125 36.101562 19.410156 36.460938 19.757812 36.601562 C 20.324219 36.832031 21.179688 37.015625 21.714844 36.875 L 21.78125 36.855469 C 21.875 36.828125 21.976562 36.800781 22.089844 36.796875 Z M 16.925781 27.21875 C 16.941406 27.226562 16.964844 27.238281 16.988281 27.253906 C 17.050781 27.285156 17.128906 27.324219 17.191406 27.378906 L 23.410156 21.320312 L 17.394531 22.660156 L 17.378906 22.679688 C 17.339844 22.730469 17.296875 22.757812 17.269531 22.777344 C 17.257812 22.78125 17.25 22.789062 17.242188 22.796875 L 17.21875 22.808594 C 17.195312 22.824219 17.179688 22.832031 17.164062 22.839844 C 17.136719 22.851562 17.132812 22.855469 17.101562 22.878906 C 17.042969 22.925781 16.992188 22.976562 16.949219 23.023438 L 16.929688 23.046875 L 16.902344 23.0625 C 16.195312 23.507812 15.773438 24.269531 15.773438 25.101562 C 15.773438 25.8125 16.085938 26.484375 16.628906 26.941406 L 16.65625 26.96875 C 16.734375 27.0625 16.828125 27.152344 16.925781 27.21875 Z M 17.414062 22.367188 L 23.726562 20.957031 L 23.71875 15.085938 C 23.507812 15.070312 23.296875 15.140625 23.136719 15.28125 L 23.066406 15.332031 L 23.019531 15.339844 C 22.167969 15.472656 21.445312 16.0625 21.132812 16.878906 L 21.117188 16.925781 L 21.078125 16.957031 C 20.839844 17.167969 20.640625 17.429688 20.480469 17.742188 C 20.464844 17.773438 20.449219 17.800781 20.441406 17.824219 L 20.414062 17.898438 L 20.34375 17.933594 C 19.738281 18.25 19.160156 18.71875 18.671875 19.296875 C 17.855469 20.265625 17.390625 21.398438 17.414062 22.367188 Z M 17.445312 27.527344 L 22.460938 27.363281 L 26.21875 25.832031 L 29.503906 24.074219 L 23.894531 21.242188 Z M 29.332031 24.488281 L 26.429688 26.042969 L 26.570312 28.300781 Z M 26.675781 28.640625 L 30.851562 30.242188 L 32.140625 27.269531 L 29.816406 24.308594 Z M 29.480469 18.980469 C 29.414062 19.050781 29.355469 19.125 29.304688 19.207031 L 24.003906 15.1875 L 24.011719 20.902344 L 29.125 19.960938 C 29.132812 20.054688 29.148438 20.148438 29.175781 20.238281 L 24.308594 21.132812 L 29.699219 23.855469 L 30.089844 21.113281 C 30.179688 21.136719 30.273438 21.152344 30.371094 21.15625 L 29.960938 24.03125 L 32.359375 27.089844 L 36.921875 25.890625 L 31.269531 20.828125 C 31.339844 20.761719 31.40625 20.691406 31.460938 20.617188 L 37.144531 25.707031 L 38.585938 21.132812 C 38.671875 21.167969 38.765625 21.199219 38.859375 21.21875 L 37.492188 25.546875 L 42.503906 21.429688 C 42.554688 21.507812 42.617188 21.582031 42.683594 21.648438 L 37.527344 25.886719 L 43.402344 27.253906 L 46 19.273438 L 44.726562 20.128906 C 44.683594 20.042969 44.628906 19.964844 44.566406 19.894531 L 46.058594 18.894531 C 46.023438 17.792969 45.066406 16.53125 43.652344 15.742188 C 42.71875 15.21875 41.699219 14.964844 40.820312 15.03125 L 43.125 19.523438 C 43.035156 19.558594 42.949219 19.601562 42.871094 19.652344 L 40.605469 15.242188 L 39.597656 18.761719 C 39.511719 18.726562 39.417969 18.703125 39.324219 18.6875 L 40.390625 14.957031 L 40.382812 14.933594 C 40.203125 14.515625 39.90625 14.152344 39.523438 13.886719 C 38.835938 13.414062 37.949219 13.332031 37.179688 13.664062 L 38.84375 18.695312 C 38.746094 18.714844 38.65625 18.746094 38.574219 18.785156 L 36.921875 13.789062 L 31.433594 19.082031 C 31.375 19.007812 31.308594 18.9375 31.234375 18.878906 L 36.746094 13.5625 C 36.613281 13.410156 36.464844 13.273438 36.296875 13.164062 C 35.535156 12.632812 34.550781 12.585938 33.738281 13.039062 L 33.675781 13.074219 L 33.523438 13.046875 L 33.480469 13.007812 C 33.421875 12.960938 33.363281 12.914062 33.28125 12.855469 C 32.449219 12.285156 31.328125 12.292969 30.503906 12.878906 L 30.460938 12.910156 L 30.414062 12.914062 C 30.320312 12.929688 30.242188 12.945312 30.167969 12.964844 C 30.074219 12.988281 30.011719 13.003906 29.964844 13.019531 L 30.445312 18.582031 C 30.433594 18.582031 30.421875 18.582031 30.414062 18.582031 C 30.328125 18.582031 30.242188 18.589844 30.160156 18.605469 L 29.679688 13.027344 C 28.859375 12.792969 27.875 12.808594 26.898438 13.074219 C 25.671875 13.40625 24.636719 14.085938 24.101562 14.902344 Z M 43.21875 27.503906 L 37.308594 26.128906 L 37.28125 26.214844 L 37.175781 26.117188 L 32.847656 27.253906 L 41.214844 29.578125 Z M 41.890625 29.285156 L 48.070312 26.417969 L 43.570312 27.546875 Z M 46.339844 19.152344 L 43.710938 27.21875 L 49.3125 25.816406 C 49.730469 24.765625 49.371094 23.585938 48.4375 22.945312 C 48.355469 22.886719 48.273438 22.835938 48.164062 22.78125 L 48.128906 22.761719 L 48.078125 22.699219 C 48.066406 22.683594 48.054688 22.671875 48.042969 22.65625 L 47.945312 22.5625 L 48 22.4375 C 48.445312 21.386719 48.085938 20.15625 47.144531 19.511719 C 46.894531 19.339844 46.625 19.222656 46.339844 19.152344 Z M 50.148438 29.734375 C 50.09375 30.085938 50.003906 30.449219 49.875 30.84375 C 49.832031 30.972656 49.777344 31.085938 49.722656 31.191406 C 49.6875 31.257812 49.652344 31.324219 49.625 31.390625 C 49.332031 32.074219 48.695312 32.824219 47.914062 33.390625 L 47.855469 33.433594 C 47.570312 33.636719 47.238281 33.824219 46.914062 33.960938 C 46.863281 33.984375 46.832031 33.996094 46.769531 34.019531 L 46.742188 34.03125 C 46.691406 34.050781 46.632812 34.070312 46.574219 34.089844 C 46.523438 34.105469 46.476562 34.125 46.429688 34.140625 C 46.175781 34.234375 45.957031 34.277344 45.707031 34.328125 L 45.683594 34.332031 C 44.988281 34.484375 44.203125 34.472656 43.476562 34.304688 L 42.875 34.132812 C 42.796875 34.105469 42.753906 34.082031 42.722656 34.0625 C 42.714844 34.058594 42.703125 34.050781 42.6875 34.046875 C 42 33.769531 41.761719 33.597656 41.191406 33.183594 C 41.097656 33.113281 40.992188 33.011719 40.890625 32.914062 C 40.847656 32.875 40.800781 32.828125 40.753906 32.785156 C 40.710938 32.898438 40.660156 33.035156 40.640625 33.097656 C 40.621094 33.148438 40.609375 33.1875 40.601562 33.199219 C 40.582031 33.25 40.566406 33.28125 40.546875 33.3125 C 40.539062 33.332031 40.527344 33.347656 40.515625 33.378906 C 40.347656 33.738281 40.164062 34.019531 39.917969 34.351562 C 39.703125 34.652344 39.472656 34.910156 39.195312 35.160156 C 38.761719 35.558594 38.257812 35.898438 37.78125 36.117188 C 36.675781 36.628906 35.472656 36.820312 34.390625 36.65625 C 33.640625 36.542969 33.03125 36.355469 32.582031 36.09375 L 31.890625 35.691406 C 31.453125 35.414062 31.003906 35.011719 30.710938 34.636719 C 30.6875 34.605469 30.652344 34.558594 30.617188 34.507812 C 30.578125 34.449219 30.503906 34.34375 30.4375 34.265625 L 30.417969 34.289062 C 30.246094 34.535156 30.035156 34.765625 29.746094 35.03125 C 29.699219 35.070312 29.660156 35.101562 29.621094 35.128906 C 29.601562 35.144531 29.578125 35.160156 29.554688 35.179688 C 29.171875 35.472656 28.703125 35.6875 28.195312 35.808594 C 28.011719 35.851562 27.898438 35.867188 27.832031 35.875 C 27.824219 35.875 27.816406 35.878906 27.808594 35.878906 C 27.808594 35.882812 27.804688 35.890625 27.800781 35.894531 C 27.765625 35.957031 27.707031 36.058594 27.589844 36.214844 C 27.542969 36.859375 26.867188 37.953125 25.796875 38.382812 C 25.527344 38.492188 25.207031 38.570312 24.839844 38.570312 C 24.117188 38.570312 23.222656 38.261719 22.214844 37.28125 L 22.070312 37.496094 L 22.078125 37.207031 C 22.019531 37.210938 21.960938 37.226562 21.894531 37.246094 C 21.871094 37.253906 21.84375 37.257812 21.820312 37.265625 C 21.1875 37.429688 20.253906 37.242188 19.601562 36.980469 C 19.195312 36.8125 18.675781 36.40625 18.410156 36.113281 L 18.398438 36.097656 L 17.945312 35.492188 C 17.578125 34.925781 17.386719 34.183594 17.402344 33.390625 C 17.402344 33.375 17.398438 33.371094 17.398438 33.371094 C 17.390625 33.355469 17.339844 33.320312 17.304688 33.292969 C 17.242188 33.25 17.160156 33.195312 17.070312 33.109375 L 17.054688 33.09375 L 16.417969 32.371094 C 16.28125 32.183594 16.089844 31.851562 16.023438 31.636719 L 16.003906 31.566406 C 15.925781 31.324219 15.859375 31.113281 15.808594 30.824219 C 15.707031 30.230469 15.816406 29.378906 16.058594 28.84375 C 16.386719 28.128906 16.632812 27.878906 16.792969 27.710938 C 16.820312 27.6875 16.839844 27.664062 16.859375 27.644531 C 16.839844 27.632812 16.820312 27.621094 16.804688 27.613281 C 16.761719 27.59375 16.722656 27.570312 16.695312 27.550781 C 16.566406 27.464844 16.453125 27.359375 16.355469 27.238281 C 15.726562 26.707031 15.367188 25.929688 15.367188 25.101562 C 15.367188 24.140625 15.851562 23.257812 16.664062 22.734375 C 16.714844 22.679688 16.777344 22.621094 16.847656 22.5625 C 16.90625 22.515625 16.933594 22.5 16.976562 22.476562 C 16.988281 22.472656 16.996094 22.46875 17.007812 22.460938 C 16.957031 21.378906 17.457031 20.105469 18.359375 19.035156 C 18.863281 18.4375 19.460938 17.945312 20.089844 17.609375 C 20.097656 17.59375 20.105469 17.578125 20.117188 17.558594 C 20.292969 17.214844 20.511719 16.921875 20.773438 16.6875 C 21.136719 15.777344 21.945312 15.117188 22.90625 14.949219 C 23.144531 14.753906 23.449219 14.660156 23.757812 14.683594 C 24.347656 13.78125 25.46875 13.039062 26.792969 12.679688 C 27.847656 12.394531 28.914062 12.382812 29.808594 12.640625 C 29.859375 12.625 29.933594 12.605469 30.066406 12.570312 C 30.140625 12.550781 30.21875 12.535156 30.308594 12.519531 C 31.269531 11.863281 32.550781 11.863281 33.515625 12.523438 C 33.558594 12.550781 33.601562 12.585938 33.652344 12.625 C 34.582031 12.160156 35.671875 12.234375 36.527344 12.828125 C 36.714844 12.953125 36.886719 13.105469 37.039062 13.277344 L 37.050781 13.269531 L 37.050781 13.277344 C 37.941406 12.90625 38.960938 13.007812 39.757812 13.554688 C 40.160156 13.832031 40.480469 14.203125 40.691406 14.636719 C 41.671875 14.535156 42.8125 14.808594 43.851562 15.386719 C 45.308594 16.203125 46.289062 17.449219 46.441406 18.632812 L 46.523438 18.578125 L 46.464844 18.761719 C 46.789062 18.84375 47.09375 18.984375 47.375 19.175781 C 48.433594 19.90625 48.863281 21.265625 48.425781 22.460938 C 48.519531 22.511719 48.601562 22.5625 48.671875 22.617188 C 49.753906 23.359375 50.175781 24.726562 49.699219 25.949219 C 49.703125 26.0625 49.703125 26.171875 49.695312 26.285156 C 49.691406 26.359375 49.683594 26.410156 49.675781 26.453125 C 49.667969 26.511719 49.667969 26.511719 49.695312 26.582031 C 49.890625 27.03125 50.132812 27.730469 50.179688 28.195312 C 50.230469 28.769531 50.222656 29.214844 50.148438 29.734375 Z M 40.347656 20.308594 L 42.296875 20.648438 C 42.304688 20.550781 42.320312 20.457031 42.34375 20.367188 L 40.394531 20.03125 C 40.386719 20.128906 40.371094 20.222656 40.347656 20.308594 Z M 31.691406 20.023438 L 37.820312 20.082031 C 37.816406 20.039062 37.816406 19.996094 37.816406 19.953125 C 37.816406 19.898438 37.820312 19.847656 37.824219 19.796875 L 31.695312 19.738281 C 31.699219 19.78125 31.703125 19.824219 31.703125 19.867188 C 31.703125 19.917969 31.699219 19.972656 31.691406 20.023438 Z M 39.109375 21.308594 C 39.859375 21.308594 40.464844 20.703125 40.464844 19.953125 C 40.464844 19.203125 39.859375 18.597656 39.109375 18.597656 C 38.355469 18.597656 37.746094 19.203125 37.746094 19.953125 C 37.746094 20.703125 38.355469 21.308594 39.109375 21.308594 Z M 23.867188 22.046875 C 24.410156 22.046875 24.851562 21.609375 24.851562 21.070312 C 24.851562 20.53125 24.410156 20.089844 23.867188 20.089844 C 23.328125 20.089844 22.882812 20.53125 22.882812 21.070312 C 22.882812 21.609375 23.328125 22.046875 23.867188 22.046875 Z M 23.867188 22.355469 C 24.582031 22.355469 25.160156 21.78125 25.160156 21.070312 C 25.160156 20.363281 24.582031 19.78125 23.867188 19.78125 C 23.15625 19.78125 22.578125 20.363281 22.578125 21.070312 C 22.578125 21.78125 23.15625 22.355469 23.867188 22.355469 Z M 30.414062 21.207031 C 29.675781 21.207031 29.070312 20.601562 29.070312 19.867188 C 29.070312 19.128906 29.675781 18.53125 30.414062 18.53125 C 31.152344 18.53125 31.75 19.128906 31.75 19.867188 C 31.75 20.601562 31.152344 21.207031 30.414062 21.207031 " fill-opacity="1" fill-rule="nonzero"/></g></svg>