<svg xmlns="http://www.w3.org/2000/svg" xmlns:xlink="http://www.w3.org/1999/xlink" width="90" zoomAndPan="magnify" viewBox="0 0 67.5 54" height="72" preserveAspectRatio="xMidYMid meet" version="1.0"><defs><clipPath id="7f8a1c9373"><path d="M 18.171875 11.128906 L 49.328125 11.128906 L 49.328125 42.285156 L 18.171875 42.285156 Z M 18.171875 11.128906 " clip-rule="nonzero"/></clipPath></defs><g clip-path="url(#7f8a1c9373)"><path fill="#000000" d="M 49.175781 41.667969 C 48.148438 41 47.191406 40.269531 46.171875 39.492188 C 44.023438 37.859375 41.804688 36.164062 38.992188 35.1875 C 38.117188 34.882812 36.429688 34.507812 35.191406 34.253906 C 38.492188 33.214844 41.304688 30.648438 43.070312 29.035156 C 43.378906 28.753906 43.65625 28.5 43.898438 28.292969 C 44.503906 27.765625 44.980469 27.269531 45.355469 26.800781 C 45.921875 27.148438 47.382812 28.035156 48.824219 28.859375 C 48.878906 28.890625 48.933594 28.902344 48.992188 28.902344 C 49.109375 28.902344 49.222656 28.84375 49.285156 28.734375 C 49.378906 28.570312 49.320312 28.363281 49.160156 28.273438 C 47.761719 27.472656 46.34375 26.613281 45.75 26.253906 C 46.367188 25.269531 46.433594 24.40625 45.964844 23.617188 C 45.632812 23.058594 45.300781 22.746094 45.035156 22.566406 C 45.527344 21.960938 45.535156 21.253906 45.042969 20.410156 C 44.800781 19.996094 44.492188 19.570312 44.089844 19.332031 C 44.304688 19 44.394531 18.519531 44.324219 17.980469 C 44.230469 17.28125 43.847656 16.398438 43.058594 16.027344 C 42.949219 15.976562 42.820312 15.949219 42.6875 15.929688 C 42.90625 15.417969 43 14.695312 42.546875 13.898438 C 41.648438 12.316406 39.472656 12.625 37.933594 13.011719 C 37.527344 12.539062 36.386719 11.296875 35.433594 11.203125 C 34.804688 11.140625 34.066406 11.625 33.734375 11.871094 C 32.507812 11.242188 31.449219 11.390625 31.042969 11.488281 C 30.421875 11.640625 29.820312 12.09375 29.183594 12.574219 C 28.542969 13.058594 27.878906 13.5625 27.277344 13.652344 C 26.777344 13.730469 26.425781 13.941406 26.222656 14.277344 C 26.101562 14.484375 26.058594 14.699219 26.050781 14.890625 C 25.527344 14.800781 24.707031 14.808594 24.046875 15.46875 C 23.539062 15.976562 22.96875 16.855469 23.046875 17.660156 C 23.066406 17.851562 23.125 18.023438 23.210938 18.183594 C 22.8125 18.320312 22.472656 18.5625 22.222656 18.941406 C 21.664062 19.804688 21.460938 20.46875 21.59375 21.027344 C 21.667969 21.34375 21.84375 21.617188 22.125 21.859375 C 22.097656 21.882812 22.0625 21.898438 22.035156 21.925781 C 21.558594 22.453125 21.316406 23.261719 21.445312 23.894531 C 21.480469 24.070312 21.550781 24.222656 21.640625 24.359375 C 20.746094 25.085938 20.710938 26.265625 20.867188 27.003906 L 18.390625 28.636719 C 18.234375 28.738281 18.191406 28.949219 18.292969 29.105469 C 18.359375 29.203125 18.46875 29.253906 18.578125 29.253906 C 18.640625 29.253906 18.707031 29.238281 18.761719 29.199219 L 21.367188 27.484375 C 21.429688 27.460938 21.480469 27.421875 21.519531 27.359375 C 21.519531 27.359375 21.785156 27.121094 22.878906 27.351562 C 23.613281 27.507812 24.226562 27.414062 24.707031 27.066406 C 25.15625 26.742188 25.375 26.277344 25.480469 25.945312 C 25.835938 26.058594 26.160156 26.113281 26.4375 26.113281 C 26.8125 26.113281 27.113281 26.027344 27.320312 25.902344 C 27.585938 25.742188 28.390625 24.851562 28.324219 23.9375 C 28.316406 23.800781 28.28125 23.640625 28.207031 23.480469 C 28.546875 23.402344 28.941406 23.210938 29.222656 22.738281 C 29.726562 21.894531 29.675781 21.121094 29.089844 20.390625 C 30.128906 19.90625 30.324219 18.699219 30.265625 18.089844 C 30.25 17.902344 30.078125 17.765625 29.898438 17.78125 C 29.710938 17.800781 29.574219 17.964844 29.59375 18.152344 C 29.59375 18.164062 29.707031 19.507812 28.664062 19.847656 C 28.636719 19.855469 28.613281 19.875 28.589844 19.886719 C 28.386719 19.714844 28.160156 19.542969 27.886719 19.375 C 26.667969 18.621094 25.183594 18.011719 23.976562 18.050781 C 23.832031 17.929688 23.738281 17.78125 23.71875 17.59375 C 23.667969 17.066406 24.101562 16.367188 24.527344 15.945312 C 25.097656 15.375 25.871094 15.519531 26.183594 15.609375 C 26.421875 16.3125 27.152344 17.386719 28.609375 17.417969 C 28.632812 17.417969 28.652344 17.417969 28.671875 17.417969 C 29.53125 17.417969 30.183594 17.066406 30.757812 16.757812 C 31.457031 16.378906 31.878906 16.179688 32.421875 16.441406 C 32.535156 16.496094 32.667969 16.480469 32.769531 16.40625 C 32.796875 16.386719 35.484375 14.410156 37.234375 13.902344 C 39.257812 13.320312 41.234375 12.953125 41.960938 14.230469 C 42.433594 15.066406 42.082031 15.703125 41.910156 15.933594 C 40.613281 16.101562 38.972656 16.882812 38.734375 17 C 38.566406 17.082031 38.496094 17.285156 38.578125 17.453125 C 38.660156 17.621094 38.863281 17.6875 39.03125 17.609375 C 39.84375 17.210938 41.132812 16.710938 42.019531 16.59375 C 42.082031 16.605469 42.144531 16.605469 42.199219 16.582031 C 42.433594 16.566406 42.636719 16.578125 42.769531 16.640625 C 43.316406 16.894531 43.585938 17.570312 43.652344 18.070312 C 43.710938 18.511719 43.628906 18.914062 43.445312 19.070312 C 43.414062 19.09375 43.394531 19.125 43.378906 19.15625 C 43.242188 19.164062 43.101562 19.183594 42.949219 19.238281 C 42.238281 19.492188 40.6875 20.332031 40.621094 20.367188 C 40.457031 20.457031 40.398438 20.660156 40.484375 20.824219 C 40.574219 20.992188 40.78125 21.050781 40.945312 20.960938 C 40.960938 20.953125 42.515625 20.113281 43.175781 19.875 C 43.578125 19.730469 43.917969 19.828125 44.457031 20.753906 C 44.910156 21.527344 44.824219 22 44.128906 22.492188 C 43.40625 23.011719 41.511719 24.097656 41.492188 24.105469 C 41.328125 24.199219 41.273438 24.40625 41.367188 24.566406 C 41.429688 24.675781 41.542969 24.738281 41.660156 24.738281 C 41.714844 24.738281 41.773438 24.722656 41.828125 24.695312 C 41.90625 24.648438 43.769531 23.582031 44.519531 23.042969 C 44.6875 23.125 45.019531 23.347656 45.382812 23.960938 C 45.777344 24.621094 45.910156 25.648438 43.453125 27.78125 C 43.207031 27.992188 42.925781 28.25 42.613281 28.539062 C 40.667969 30.316406 37.410156 33.289062 33.726562 33.917969 C 33.675781 33.925781 33.625 33.941406 33.574219 33.953125 C 33.550781 33.953125 33.53125 33.960938 33.511719 33.964844 C 31.433594 34.378906 29.40625 35.566406 27.066406 36.945312 C 24.621094 38.390625 21.847656 40.027344 18.480469 41.023438 C 18.300781 41.078125 18.199219 41.265625 18.253906 41.445312 C 18.296875 41.589844 18.429688 41.6875 18.578125 41.6875 C 18.609375 41.6875 18.640625 41.679688 18.671875 41.671875 C 22.121094 40.652344 24.929688 38.992188 27.410156 37.527344 C 29.691406 36.183594 31.671875 35.023438 33.632812 34.632812 C 34.167969 34.734375 37.46875 35.375 38.769531 35.828125 C 41.480469 36.769531 43.65625 38.425781 45.761719 40.03125 C 46.746094 40.78125 47.761719 41.554688 48.804688 42.234375 C 48.863281 42.269531 48.925781 42.289062 48.992188 42.289062 C 49.101562 42.289062 49.207031 42.234375 49.273438 42.132812 C 49.375 41.976562 49.332031 41.769531 49.175781 41.667969 Z M 24.308594 26.519531 C 23.988281 26.75 23.554688 26.804688 23.019531 26.691406 C 22.285156 26.535156 21.804688 26.558594 21.492188 26.640625 C 21.429688 26.136719 21.460938 25.292969 22.160156 24.8125 C 22.175781 24.816406 22.195312 24.824219 22.210938 24.828125 C 22.226562 24.832031 23.855469 25.210938 24.851562 25.691406 C 24.785156 25.925781 24.628906 26.289062 24.308594 26.519531 Z M 26.972656 25.324219 C 26.75 25.457031 26.125 25.5625 25.195312 25.105469 C 24.207031 24.617188 22.667969 24.242188 22.402344 24.179688 C 22.246094 24.097656 22.148438 23.960938 22.109375 23.757812 C 22.023438 23.335938 22.207031 22.746094 22.539062 22.378906 C 22.679688 22.21875 23.433594 21.816406 27.039062 23.3125 C 27.613281 23.550781 27.640625 23.871094 27.648438 23.976562 C 27.699219 24.523438 27.132812 25.21875 26.972656 25.324219 Z M 27.53125 19.949219 C 29.40625 21.109375 28.890625 21.976562 28.640625 22.390625 C 28.308594 22.949219 27.679688 22.847656 27.652344 22.84375 L 27.648438 22.875 C 27.546875 22.808594 27.433594 22.746094 27.296875 22.6875 C 25.160156 21.800781 23.703125 21.433594 22.8125 21.566406 L 22.832031 21.535156 C 22.492188 21.335938 22.308594 21.125 22.25 20.875 C 22.167969 20.511719 22.34375 20 22.789062 19.3125 C 23.523438 18.1875 25.761719 18.851562 27.53125 19.949219 Z M 32.523438 15.75 C 31.734375 15.464844 31.070312 15.816406 30.4375 16.160156 C 29.894531 16.453125 29.304688 16.75 28.625 16.738281 C 27.160156 16.710938 26.796875 15.320312 26.769531 15.230469 C 26.769531 15.226562 26.65625 14.875 26.804688 14.625 C 26.898438 14.46875 27.089844 14.367188 27.378906 14.320312 C 28.148438 14.203125 28.882812 13.648438 29.589844 13.113281 C 30.171875 12.675781 30.71875 12.261719 31.203125 12.144531 C 31.371094 12.105469 31.601562 12.066406 31.878906 12.066406 C 32.710938 12.066406 33.972656 12.40625 35.210938 14.054688 C 34.035156 14.6875 32.925781 15.460938 32.523438 15.75 Z M 35.816406 13.742188 C 35.808594 13.722656 35.796875 13.703125 35.78125 13.6875 C 35.3125 13.054688 34.832031 12.59375 34.363281 12.257812 C 34.691406 12.046875 35.089844 11.851562 35.367188 11.875 C 35.875 11.925781 36.652344 12.613281 37.203125 13.210938 C 37.152344 13.226562 37.097656 13.242188 37.046875 13.253906 C 36.660156 13.367188 36.242188 13.539062 35.816406 13.742188 Z M 35.816406 13.742188 " fill-opacity="1" fill-rule="nonzero"/></g></svg>