<svg xmlns="http://www.w3.org/2000/svg" xmlns:xlink="http://www.w3.org/1999/xlink" width="2000" zoomAndPan="magnify" viewBox="0 0 1500 1499.999933" height="2000" preserveAspectRatio="xMidYMid meet" version="1.0"><defs><clipPath id="c205181628"><path d="M 472.214844 912 L 904 912 L 904 1066 L 472.214844 1066 Z M 472.214844 912 " clip-rule="nonzero"/></clipPath><clipPath id="83944c59d0"><path d="M 621 1031 L 755 1031 L 755 1164.890625 L 621 1164.890625 Z M 621 1031 " clip-rule="nonzero"/></clipPath><clipPath id="ef34d8279b"><path d="M 732 335.390625 L 1027.960938 335.390625 L 1027.960938 457 L 732 457 Z M 732 335.390625 " clip-rule="nonzero"/></clipPath></defs><g clip-path="url(#c205181628)"><path fill="#000000" d="M 893.855469 1065.351562 C 789.390625 1065.351562 763.84375 1016.667969 743.316406 977.542969 C 729.464844 951.132812 719.453125 932.066406 688.136719 932.066406 C 656.835938 932.066406 646.824219 951.132812 632.957031 977.542969 C 612.429688 1016.667969 586.894531 1065.351562 482.433594 1065.351562 C 477.070312 1065.351562 472.710938 1060.996094 472.710938 1055.632812 C 472.710938 1050.269531 477.070312 1045.910156 482.433594 1045.910156 C 575.132812 1045.910156 596.714844 1004.792969 615.75 968.519531 C 630.167969 941.039062 645.074219 912.625 688.136719 912.625 C 731.214844 912.625 746.117188 941.039062 760.539062 968.519531 C 779.574219 1004.792969 801.152344 1045.910156 893.855469 1045.910156 C 899.21875 1045.910156 903.574219 1050.269531 903.574219 1055.632812 C 903.574219 1060.996094 899.21875 1065.351562 893.855469 1065.351562 Z M 893.855469 1065.351562 " fill-opacity="1" fill-rule="evenodd"/></g><g clip-path="url(#83944c59d0)"><path fill="#000000" d="M 688.136719 1164.875 C 651.425781 1164.875 621.550781 1135 621.550781 1098.289062 C 621.550781 1061.5625 651.425781 1031.703125 688.136719 1031.703125 C 724.863281 1031.703125 754.738281 1061.5625 754.738281 1098.289062 C 754.738281 1135 724.863281 1164.875 688.136719 1164.875 Z M 688.136719 1051.144531 C 662.148438 1051.144531 640.992188 1072.285156 640.992188 1098.289062 C 640.992188 1124.292969 662.148438 1145.433594 688.136719 1145.433594 C 714.136719 1145.433594 735.296875 1124.277344 735.296875 1098.289062 C 735.296875 1072.285156 714.136719 1051.144531 688.136719 1051.144531 Z M 688.136719 1051.144531 " fill-opacity="1" fill-rule="evenodd"/></g><path fill="#000000" d="M 668.597656 934.738281 C 663.21875 934.738281 658.875 930.398438 658.875 925.035156 L 658.875 831.097656 C 658.875 825.738281 663.21875 821.378906 668.597656 821.378906 C 673.960938 821.378906 678.316406 825.738281 678.316406 831.097656 L 678.316406 925.035156 C 678.316406 930.398438 673.960938 934.738281 668.597656 934.738281 Z M 668.597656 934.738281 " fill-opacity="1" fill-rule="evenodd"/><path fill="#000000" d="M 707.691406 934.738281 C 702.328125 934.738281 697.96875 930.398438 697.96875 925.035156 L 697.96875 831.097656 C 697.96875 825.738281 702.328125 821.378906 707.691406 821.378906 C 713.050781 821.378906 717.410156 825.738281 717.410156 831.097656 L 717.410156 925.035156 C 717.410156 930.398438 713.050781 934.738281 707.691406 934.738281 Z M 707.691406 934.738281 " fill-opacity="1" fill-rule="evenodd"/><path fill="#000000" d="M 688.136719 844.09375 C 666.667969 844.09375 644.832031 833.984375 631.171875 817.71875 C 619.960938 804.367188 615.34375 788.230469 618.148438 772.257812 L 644.359375 622.980469 C 645.285156 617.699219 650.304688 614.148438 655.605469 615.089844 C 660.902344 616.011719 664.433594 621.050781 663.511719 626.332031 L 637.296875 775.625 C 634.996094 788.703125 640.796875 798.941406 646.0625 805.210938 C 656.121094 817.199219 672.242188 824.652344 688.136719 824.652344 C 704.027344 824.652344 720.148438 817.199219 730.210938 805.226562 C 735.492188 798.941406 741.289062 788.703125 738.992188 775.625 L 712.777344 626.332031 C 711.855469 621.050781 715.386719 616.011719 720.667969 615.089844 C 725.949219 614.164062 731.003906 617.699219 731.925781 622.980469 L 758.140625 772.257812 C 760.941406 788.230469 756.308594 804.367188 745.097656 817.71875 C 731.441406 833.984375 709.617188 844.09375 688.136719 844.09375 Z M 688.136719 844.09375 " fill-opacity="1" fill-rule="evenodd"/><g clip-path="url(#ef34d8279b)"><path fill="#000000" d="M 966.320312 456.625 L 794.15625 456.625 C 788.777344 456.625 784.433594 452.269531 784.433594 446.90625 L 784.433594 423.171875 L 742.570312 423.171875 C 737.191406 423.171875 732.851562 418.8125 732.851562 413.449219 L 732.851562 345.128906 C 732.851562 339.765625 737.191406 335.410156 742.570312 335.410156 L 1017.90625 335.410156 C 1023.269531 335.410156 1027.625 339.765625 1027.625 345.128906 L 1027.625 413.449219 C 1027.625 418.8125 1023.269531 423.171875 1017.90625 423.171875 L 976.042969 423.171875 L 976.042969 446.90625 C 976.042969 452.269531 971.699219 456.625 966.320312 456.625 Z M 803.859375 437.183594 L 956.601562 437.183594 L 956.601562 413.449219 C 956.601562 408.070312 960.960938 403.730469 966.320312 403.730469 L 1008.183594 403.730469 L 1008.183594 354.851562 L 752.292969 354.851562 L 752.292969 403.730469 L 794.15625 403.730469 C 799.515625 403.730469 803.859375 408.070312 803.859375 413.449219 Z M 803.859375 437.183594 " fill-opacity="1" fill-rule="evenodd"/></g><path fill="#000000" d="M 804.410156 634.386719 L 722.351562 634.386719 C 716.988281 634.386719 712.632812 630.027344 712.632812 624.664062 C 712.632812 619.285156 716.988281 614.945312 722.351562 614.945312 L 794.6875 614.945312 L 794.6875 525.707031 C 794.6875 520.328125 799.046875 515.988281 804.410156 515.988281 L 870.527344 515.988281 L 870.527344 446.90625 C 870.527344 441.527344 874.867188 437.183594 880.230469 437.183594 C 885.609375 437.183594 889.949219 441.527344 889.949219 446.90625 L 889.949219 525.707031 C 889.949219 531.070312 885.609375 535.429688 880.230469 535.429688 L 814.128906 535.429688 L 814.128906 624.664062 C 814.128906 630.027344 809.773438 634.386719 804.410156 634.386719 Z M 804.410156 634.386719 " fill-opacity="1" fill-rule="evenodd"/></svg>