<svg xmlns="http://www.w3.org/2000/svg" xmlns:xlink="http://www.w3.org/1999/xlink" width="90" zoomAndPan="magnify" viewBox="0 0 67.5 54" height="72" preserveAspectRatio="xMidYMid meet" version="1.0"><defs><clipPath id="a8960796da"><path d="M 18.929688 11.886719 L 48.605469 11.886719 L 48.605469 41.558594 L 18.929688 41.558594 Z M 18.929688 11.886719 " clip-rule="nonzero"/></clipPath></defs><g clip-path="url(#a8960796da)"><path fill="#000000" d="M 33.773438 11.886719 C 25.574219 11.886719 18.929688 18.53125 18.929688 26.726562 C 18.929688 34.921875 25.574219 41.566406 33.773438 41.566406 C 41.96875 41.566406 48.613281 34.921875 48.613281 26.726562 C 48.613281 18.53125 41.96875 11.886719 33.773438 11.886719 Z M 33.773438 38.476562 C 27.28125 38.476562 22.023438 33.214844 22.023438 26.726562 C 22.023438 20.238281 27.28125 14.980469 33.773438 14.980469 C 40.261719 14.980469 45.519531 20.238281 45.519531 26.726562 C 45.519531 33.214844 40.261719 38.476562 33.773438 38.476562 Z M 33.773438 38.476562 " fill-opacity="1" fill-rule="nonzero"/></g></svg>